<svg xmlns="http://www.w3.org/2000/svg" width="460" height="468" viewBox="0 0 460 468">
  <g id="Group_229" data-name="Group 229" transform="translate(-113 -1486)">
    <ellipse id="Ellipse_5" data-name="Ellipse 5" cx="230" cy="234" rx="230" ry="234" transform="translate(113 1486)" fill="#d7e4f0"/>
    <path id="Path_58" data-name="Path 58" d="M115.1,14.595c11.215,0,23.153,4.7,35.077,11.958,12.793,7.791,78.469-60.633,78.469-60.633L218.226,92.189S228.641,128,228.641,148.136c0,27.952-33.911,39.252-46.576,61.009-3.2,5.5-7.141,26.814-22.659,36.076s-18.884,9.973-39.414.973c-40.911,16.164-46.3,1.763-66.374-37.049-10.3-19.91-52.069-35.638-52.069-61.009,0-21.536,12.172-60.219,12.172-60.219l-17.344-122S45.517,15.625,68.11,26.938c.812.407,8.071,16.517,8.071,16.517L80.5,45.709s-1.931,3.333-1.421,4.523l4.851,11.327L82.716,73.435l11.218,26.86L89.651,79.76l4.871-11.292L98.132,56.44l-6.289-6.208L94.227,45.3l-.293-12.6s-10.576-8.3-10-8.618C93.992,18.479,104.877,14.595,115.1,14.595Z" transform="translate(230.451 1596.214)" fill="#fff"/>
    <path id="Path_59" data-name="Path 59" d="M48.523,43.045c12.829,0,21.621-15.9,37.393-20.249s25.7,2.838,25.7,2.838S98.184,10.182,96.341,8.671c-6.11-5.065-33.873-4.658-47.818-4.658C31.35,4.013,0,0,0,0S31.35,43.045,48.523,43.045Z" transform="translate(265.963 1689.463) rotate(42)" fill="#fa2e6a"/>
    <path id="Path_60" data-name="Path 60" d="M25.073,25.679c11.3,0,27.128-12.5,27.128-18.714S36.372,0,25.073,0,0,.751,0,6.965,13.775,25.679,25.073,25.679Z" transform="translate(276.727 1712.266) rotate(42)" fill="#fff"/>
    <path id="Path_61" data-name="Path 61" d="M48.523,0C61.352,0,70.144,15.9,85.917,20.249s25.7-2.838,25.7-2.838S98.184,32.863,96.341,34.374c-6.11,5.065-33.873,4.658-47.818,4.658C31.35,39.032,0,43.045,0,43.045S31.35,0,48.523,0Z" transform="translate(456.027 1721.452) rotate(138)" fill="#fa2e6a"/>
    <path id="Path_62" data-name="Path 62" d="M25.073,0C36.372,0,52.2,12.5,52.2,18.714s-15.829,6.965-27.128,6.965S0,24.928,0,18.714,13.775,0,25.073,0Z" transform="translate(433.641 1731.349) rotate(138)" fill="#fff"/>
    <path id="Path_63" data-name="Path 63" d="M11.309,0,22.617,8.224s-5.063,8.224-11.309,8.224S0,8.224,0,8.224Z" transform="translate(338.502 1820.297)" fill="#fa2e6a"/>
    <path id="Path_64" data-name="Path 64" d="M15,23.844c3.606,13.816,15,14.068,15,31.421S13.107,98.729,13.107,98.729,0,72.619,0,55.265C0,49.088,15.568,0,15.568,0S11.39,10.028,15,23.844Z" transform="translate(426.431 1682.153) rotate(-160)" fill="#fa2e6a"/>
    <path id="Path_65" data-name="Path 65" d="M15,74.885c3.606-13.816,15-14.068,15-31.421S13.107,0,13.107,0,0,26.11,0,43.463c0,6.178,15.569,55.266,15.569,55.266S11.39,88.7,15,74.885Z" transform="translate(229.714 1596.519) rotate(-20)" fill="#fa2e6a"/>
  </g>
</svg>
